<?xml version="1.0" standalone="no"?><svg xmlns="http://www.w3.org/2000/svg" viewBox="0 0 1440 320"><path fill="#6c63ff" fill-opacity="1" d="M0,160L40,181.3C80,203,160,245,240,266.7C320,288,400,288,480,277.3C560,267,640,245,720,218.7C800,192,880,160,960,122.7C1040,85,1120,43,1200,42.7C1280,43,1360,85,1400,106.7L1440,128L1440,320L1400,320C1360,320,1280,320,1200,320C1120,320,1040,320,960,320C880,320,800,320,720,320C640,320,560,320,480,320C400,320,320,320,240,320C160,320,80,320,40,320L0,320Z"></path></svg>